HIERARCHY
ROOT Pelvis
{
	OFFSET 0.000000 0.000000 0.000000
	CHANNELS 6 Xposition Yposition Zposition Xrotation Yrotation Zrotation
	JOINT LeftUpLeg_virtual
	{
		OFFSET 0.000000 0.000000 0.000000
		CHANNELS 3 Xrotation Yrotation Zrotation
		JOINT LeftUpLeg
		{
			OFFSET 18.735201 -5.666702 -4.541200
			CHANNELS 3 Xrotation Yrotation Zrotation
			JOINT LeftLeg
			{
				OFFSET -0.021200 -31.938179 0.493100
				CHANNELS 3 Xrotation Yrotation Zrotation
				JOINT LeftFoot
				{
					OFFSET 0.021200 -31.938179 -4.336299
					CHANNELS 3 Xrotation Yrotation Zrotation
					JOINT LeftToeBase
					{
						OFFSET 0.943001 -26.722000 15.023500
						CHANNELS 3 Xrotation Yrotation Zrotation
						End Site
						{
							OFFSET 0 0 0
						}
					}
				}
			}
		}
	}
	JOINT RightUpLeg_virtual
	{
		OFFSET 0.000000 0.000000 0.000000
		CHANNELS 3 Xrotation Yrotation Zrotation
		JOINT RightUpLeg
		{
			OFFSET -18.735201 -5.666702 -4.541200
			CHANNELS 3 Xrotation Yrotation Zrotation
			JOINT RightLeg
			{
				OFFSET 0.018946 -31.938133 0.493100
				CHANNELS 3 Xrotation Yrotation Zrotation
				JOINT RightFoot
				{
					OFFSET -0.018946 -31.938126 -4.336299
					CHANNELS 3 Xrotation Yrotation Zrotation
					JOINT RightToeBase
					{
						OFFSET -0.943001 -26.722004 15.023500
						CHANNELS 3 Xrotation Yrotation Zrotation
						End Site
						{
							OFFSET 0 0 0
						}
					}
				}
			}
		}
	}
	JOINT Hips_virtual
	{
		OFFSET 0.000000 0.000000 0.000000
		CHANNELS 3 Xrotation Yrotation Zrotation
		JOINT Hips
		{
			OFFSET -0.000000 -0.000000 -0.000000
			CHANNELS 3 Xrotation Yrotation Zrotation
			JOINT Spine
			{
				OFFSET 0.000000 10.199997 -0.299500
				CHANNELS 3 Xrotation Yrotation Zrotation
				JOINT Spine1
				{
					OFFSET 0.000000 11.900002 -1.516600
					CHANNELS 3 Xrotation Yrotation Zrotation
					JOINT Spine2
					{
						OFFSET 0.000000 13.600006 -2.842500
						CHANNELS 3 Xrotation Yrotation Zrotation
						JOINT Neck_virtual
						{
							OFFSET 0.000000 0.000000 0.000000
							CHANNELS 3 Xrotation Yrotation Zrotation
							JOINT Neck
							{
								OFFSET 0.000000 9.624100 -2.890100
								CHANNELS 3 Xrotation Yrotation Zrotation
								JOINT Head
								{
									OFFSET 0.000000 14.068802 -1.351900
									CHANNELS 3 Xrotation Yrotation Zrotation
									End Site
									{
										OFFSET 0 0 0
									}
								}
							}
						}
						JOINT LeftShoulder_virtual
						{
							OFFSET 0.000000 0.000000 0.000000
							CHANNELS 3 Xrotation Yrotation Zrotation
							JOINT LeftShoulder
							{
								OFFSET 15.263000 10.923401 -0.547700
								CHANNELS 3 Xrotation Yrotation Zrotation
								JOINT LeftArm
								{
									OFFSET 25.438599 -2.830597 -13.032500
									CHANNELS 3 Xrotation Yrotation Zrotation
									JOINT LeftForeArm
									{
										OFFSET 29.960503 0.000000 0.000000
										CHANNELS 3 Xrotation Yrotation Zrotation
										JOINT LeftHand
										{
											OFFSET 27.849251 0.000000 0.000000
											CHANNELS 3 Xrotation Yrotation Zrotation
											End Site
											{
												OFFSET 0 0 0
											}
										}
									}
								}
							}
						}
						JOINT RightShoulder_virtual
						{
							OFFSET 0.000000 0.000000 0.000000
							CHANNELS 3 Xrotation Yrotation Zrotation
							JOINT RightShoulder
							{
								OFFSET -15.263000 10.923401 -0.547700
								CHANNELS 3 Xrotation Yrotation Zrotation
								JOINT RightArm
								{
									OFFSET -25.438599 -2.830597 -13.032500
									CHANNELS 3 Xrotation Yrotation Zrotation
									JOINT RightForeArm
									{
										OFFSET -29.960503 0.000000 0.000000
										CHANNELS 3 Xrotation Yrotation Zrotation
										JOINT RightHand
										{
											OFFSET -27.849251 0.000000 0.000000
											CHANNELS 3 Xrotation Yrotation Zrotation
											End Site
											{
												OFFSET 0 0 0
											}
										}
									}
								}
							}
						}
					}
				}
			}
		}
	}
}
MOTION
Frames: 8
Frame Time: 0.03333333
3.596138 6.868767 2.322275 0.000000 0.000000 0.000000 91.837255 0.356170 3.973473 -23.893016 7.422952 15.160879 29.135941 11.250864 0.955910 53.806174 29.412154 -18.773151 0.000000 0.000000 0.000000 93.446154 0.548656 2.610255 -23.507752 -9.116521 -15.116599 29.024879 -12.072567 2.053542 49.171099 -29.492859 23.885325 0.000000 0.000000 0.000000 90.918410 1.130722 4.857199 -1.246832 0.057936 -1.469295 0.062529 -0.538422 0.248951 1.291362 -0.305487 -0.278113 0.000000 0.000000 0.000000 0.064156 0.203602 -0.230410 -1.831202 -5.598034 2.967690 0.000000 0.000000 0.000000 1.011449 0.299068 -0.389167 3.222728 -21.139121 -2.263627 12.257818 -19.736960 -63.546393 -0.422435 -20.804797 0.185622 0.000000 0.000000 0.000000 0.346078 0.435403 -0.624362 1.305627 16.845560 9.681037 14.800383 -3.742131 53.480822 0.624781 36.269780 0.225410 0.000000 0.000000 0.000000 
3.597249 6.869835 2.316917 0.000000 0.000000 0.000000 91.833895 0.355188 3.976784 -23.883759 7.421712 15.158799 29.133704 11.252090 0.957106 53.810860 29.406304 -18.775143 0.000000 0.000000 0.000000 93.443873 0.547510 2.613232 -23.503847 -9.119014 -15.118216 29.022840 -12.074968 2.051474 49.180832 -29.487812 23.888375 0.000000 0.000000 0.000000 90.915391 1.128499 4.862504 -1.249336 0.057605 -1.469448 0.066809 -0.534620 0.251197 1.292388 -0.305658 -0.278194 0.000000 0.000000 0.000000 0.063312 0.203865 -0.229163 -1.829831 -5.598235 2.967452 0.000000 0.000000 0.000000 1.007288 0.299111 -0.389050 3.219433 -21.133544 -2.271736 12.256215 -19.742486 -63.549521 -0.425164 -20.776317 0.185382 0.000000 0.000000 0.000000 0.347128 0.435528 -0.624715 1.298833 16.845514 9.687157 14.790882 -3.783284 53.488229 0.629451 36.253387 0.223560 0.000000 0.000000 0.000000 
3.598394 6.875694 2.312426 0.000000 0.000000 0.000000 91.825548 0.357431 3.979560 -23.876798 7.414826 15.154983 29.135999 11.258531 0.961068 53.818885 29.405983 -18.777317 0.000000 0.000000 0.000000 93.437807 0.549698 2.615548 -23.485351 -9.127364 -15.121663 29.013161 -12.084519 2.047646 49.185866 -29.481589 23.900381 0.000000 0.000000 0.000000 90.908356 1.129708 4.866912 -1.251937 0.057883 -1.467801 0.071885 -0.529295 0.252223 1.293446 -0.305483 -0.275770 0.000000 0.000000 0.000000 0.062387 0.204732 -0.225208 -1.825467 -5.597284 2.965661 0.000000 0.000000 0.000000 1.002990 0.299626 -0.385465 3.220456 -21.152174 -2.282599 12.235429 -19.743615 -63.555778 -0.420543 -20.718501 0.188623 0.000000 0.000000 0.000000 0.346423 0.436620 -0.621595 1.289808 16.846786 9.682151 14.746146 -3.846556 53.506496 0.635146 36.200436 0.221425 0.000000 0.000000 0.000000 
3.600134 6.883430 2.309662 0.000000 0.000000 0.000000 91.811860 0.363743 3.980550 -23.875703 7.403568 15.149114 29.145309 11.267332 0.966126 53.824046 29.409705 -18.780344 0.000000 0.000000 0.000000 93.427460 0.555709 2.616130 -23.453167 -9.138254 -15.127785 28.997097 -12.099442 2.044275 49.183277 -29.473608 23.922164 0.000000 0.000000 0.000000 90.896116 1.134838 4.868926 -1.252621 0.058520 -1.464563 0.077178 -0.523543 0.252492 1.294514 -0.305083 -0.271796 0.000000 0.000000 0.000000 0.060999 0.205674 -0.219562 -1.818426 -5.595318 2.962294 0.000000 0.000000 0.000000 0.999489 0.299996 -0.379538 3.226877 -21.194620 -2.293871 12.199267 -19.739918 -63.561836 -0.409371 -20.635690 0.194350 0.000000 0.000000 0.000000 0.345062 0.437883 -0.615511 1.281301 16.852107 9.664363 14.674419 -3.923232 53.528862 0.641320 36.123522 0.220568 0.000000 0.000000 0.000000 
3.600832 6.891174 2.306965 0.000000 0.000000 0.000000 91.793187 0.374672 3.979333 -23.882573 7.391194 15.142212 29.163303 11.275122 0.970385 53.822478 29.413807 -18.786548 0.000000 0.000000 0.000000 93.411402 0.565943 2.615281 -23.413984 -9.149884 -15.138763 28.982709 -12.117158 2.044487 49.185828 -29.458087 23.957382 0.000000 0.000000 0.000000 90.878030 1.144676 4.868026 -1.252434 0.058584 -1.461342 0.081025 -0.518533 0.253584 1.295688 -0.304801 -0.267096 0.000000 0.000000 0.000000 0.058622 0.205710 -0.213599 -1.809045 -5.592800 2.957619 0.000000 0.000000 0.000000 0.998624 0.299901 -0.372781 3.238559 -21.254946 -2.305570 12.156047 -19.729403 -63.564780 -0.395418 -20.529756 0.198191 0.000000 0.000000 0.000000 0.343662 0.438791 -0.607822 1.275544 16.864767 9.633624 14.591190 -4.005740 53.543383 0.648228 36.033267 0.221584 0.000000 0.000000 0.000000 
3.601493 6.897789 2.305378 0.000000 0.000000 0.000000 91.769950 0.389668 3.976806 -23.896937 7.380554 15.135090 29.187895 11.280930 0.972809 53.814538 29.417010 -18.796757 0.000000 0.000000 0.000000 93.389450 0.579635 2.613838 -23.376958 -9.159442 -15.154609 28.977843 -12.136278 2.049350 49.204618 -29.431992 24.006377 0.000000 0.000000 0.000000 90.854930 1.157869 4.866590 -1.251808 0.060181 -1.459173 0.082524 -0.515978 0.257072 1.296908 -0.304852 -0.262807 0.000000 0.000000 0.000000 0.055543 0.204651 -0.208912 -1.797987 -5.590197 2.952163 0.000000 0.000000 0.000000 1.000590 0.299273 -0.366906 3.254119 -21.326009 -2.315787 12.113160 -19.707425 -63.564124 -0.381176 -20.408648 0.198706 0.000000 0.000000 0.000000 0.343236 0.439281 -0.600287 1.274056 16.884725 9.592540 14.509632 -4.088918 53.543048 0.654509 35.940708 0.224861 0.000000 0.000000 0.000000 
3.602232 6.903435 2.304047 0.000000 0.000000 0.000000 91.744187 0.406306 3.974890 -23.914415 7.371837 15.126743 29.216575 11.285607 0.975792 53.800779 29.425339 -18.806863 0.000000 0.000000 0.000000 93.363379 0.595111 2.613116 -23.347461 -9.166108 -15.171669 28.984898 -12.158042 2.057398 49.235231 -29.402745 24.060603 0.000000 0.000000 0.000000 90.828791 1.174634 4.864425 -1.251026 0.062082 -1.458814 0.080586 -0.517446 0.264458 1.297735 -0.304565 -0.259885 0.000000 0.000000 0.000000 0.052937 0.203556 -0.205959 -1.786014 -5.588187 2.946498 0.000000 0.000000 0.000000 1.004247 0.298785 -0.362483 3.271061 -21.399532 -2.323561 12.071729 -19.672205 -63.559787 -0.370538 -20.291927 0.193670 0.000000 0.000000 0.000000 0.343963 0.439433 -0.594826 1.275674 16.907785 9.546872 14.433172 -4.174773 53.526437 0.662077 35.855266 0.224406 0.000000 0.000000 0.000000 
3.601722 6.908699 2.301809 0.000000 0.000000 0.000000 91.718669 0.421488 3.974973 -23.927923 7.365520 15.117000 29.244821 11.291261 0.982012 53.780486 29.445693 -18.811820 0.000000 0.000000 0.000000 93.336625 0.610051 2.614526 -23.324353 -9.168843 -15.185291 29.002947 -12.183901 2.064779 49.265912 -29.380404 24.109784 0.000000 0.000000 0.000000 90.802509 1.194869 4.861137 -1.252157 0.065004 -1.460453 0.074175 -0.523640 0.276087 1.298513 -0.303363 -0.258612 0.000000 0.000000 0.000000 0.051909 0.203439 -0.205077 -1.773586 -5.587547 2.941236 0.000000 0.000000 0.000000 1.008280 0.299591 -0.359998 3.287112 -21.469842 -2.331271 12.031156 -19.628002 -63.559848 -0.367578 -20.202530 0.181683 0.000000 0.000000 0.000000 0.345379 0.440366 -0.592183 1.276970 16.929481 9.509913 14.362409 -4.259288 53.500732 0.670922 35.791134 0.216064 0.000000 0.000000 0.000000 
